<svg width="390" height="844" viewBox="0 0 390 844" fill="none" xmlns="http://www.w3.org/2000/svg">
<g clip-path="url(#clip0_33_2)">
<rect width="390" height="844" fill="white"/>
<rect y="47" width="390" height="763" fill="white"/>
<rect y="761" width="390" height="49" fill="#CCCCCC"/>
<rect y="47" width="390" height="44" fill="#CCCCCC"/>
<rect x="374" width="16" height="844" fill="#888888"/>
<rect width="16" height="844" fill="#888888"/>
<rect width="390" height="34" transform="matrix(1 0 0 -1 0 844)" fill="#888888"/>
<rect width="390" height="47" fill="#888888"/>
<rect width="140" height="5" rx="2.5" transform="matrix(-1 0 0 1 265 831)" fill="black"/>
<path d="M55.4399 19.7231C56.0818 19.7231 56.6905 19.8421 57.2661 20.0801C57.8416 20.3125 58.3507 20.6777 58.7934 21.1758C59.2416 21.6683 59.593 22.3019 59.8476 23.0767C60.1022 23.8459 60.2294 24.7728 60.2294 25.8574V25.874C60.2294 27.2188 60.0358 28.3698 59.6484 29.3271C59.261 30.2845 58.7049 31.0205 57.9799 31.5352C57.2605 32.0443 56.4 32.2988 55.3984 32.2988C54.6624 32.2988 53.9983 32.166 53.4062 31.9004C52.8196 31.6292 52.3326 31.2585 51.9453 30.7881C51.5634 30.3122 51.3061 29.7699 51.1733 29.1611L51.1567 29.0698H53.2568L53.29 29.1528C53.3951 29.4295 53.5445 29.673 53.7382 29.8833C53.9375 30.0936 54.1754 30.2568 54.4521 30.373C54.7343 30.4837 55.0498 30.5391 55.3984 30.5391C56.0292 30.5391 56.5439 30.3537 56.9423 29.9829C57.3463 29.6066 57.6479 29.1058 57.8471 28.4805C58.0519 27.8496 58.1681 27.1523 58.1958 26.3887C58.2013 26.3057 58.2041 26.2254 58.2041 26.1479C58.2041 26.0649 58.2041 25.9847 58.2041 25.9072L57.8305 23.9067C57.8305 23.453 57.7254 23.0407 57.5151 22.6699C57.3048 22.2992 57.0198 22.0059 56.6601 21.79C56.3059 21.5742 55.9047 21.4663 55.4565 21.4663C55.0249 21.4663 54.6292 21.5715 54.2695 21.7817C53.9098 21.992 53.622 22.2798 53.4062 22.645C53.1904 23.0047 53.0825 23.4087 53.0825 23.8569V23.8735C53.0825 24.3384 53.1848 24.7507 53.3896 25.1104C53.5944 25.4645 53.8738 25.744 54.228 25.9487C54.5821 26.1535 54.9861 26.2559 55.4399 26.2559C55.8937 26.2559 56.3004 26.1562 56.6601 25.957C57.0198 25.7578 57.3048 25.4811 57.5151 25.127C57.7254 24.7728 57.8305 24.3716 57.8305 23.9233V23.9067H58.3286V26.1147H58.038C57.8942 26.4302 57.6811 26.7235 57.3989 26.9946C57.1166 27.2658 56.768 27.4844 56.353 27.6504C55.9435 27.8164 55.462 27.8994 54.9086 27.8994C54.145 27.8994 53.4698 27.7279 52.8833 27.3848C52.2967 27.0417 51.8346 26.5713 51.497 25.9736C51.165 25.376 50.999 24.7008 50.999 23.9482V23.9316C50.999 23.1182 51.1871 22.396 51.5634 21.7651C51.9453 21.1287 52.471 20.6307 53.1406 20.271C53.8157 19.9058 54.5821 19.7231 55.4399 19.7231ZM63.998 30.3896C63.6217 30.3896 63.3063 30.2651 63.0517 30.0161C62.8027 29.7616 62.6782 29.4517 62.6782 29.0864C62.6782 28.7157 62.8027 28.4058 63.0517 28.1567C63.3063 27.9022 63.6217 27.7749 63.998 27.7749C64.3798 27.7749 64.6953 27.9022 64.9443 28.1567C65.1933 28.4058 65.3178 28.7157 65.3178 29.0864C65.3178 29.4517 65.1933 29.7616 64.9443 30.0161C64.6953 30.2651 64.3798 30.3896 63.998 30.3896ZM63.998 24.2305C63.6217 24.2305 63.3063 24.106 63.0517 23.8569C62.8027 23.6024 62.6782 23.2925 62.6782 22.9272C62.6782 22.5565 62.8027 22.2466 63.0517 21.9976C63.3063 21.743 63.6217 21.6157 63.998 21.6157C64.3798 21.6157 64.6953 21.743 64.9443 21.9976C65.1933 22.2466 65.3178 22.5565 65.3178 22.9272C65.3178 23.2925 65.1933 23.6024 64.9443 23.8569C64.6953 24.106 64.3798 24.2305 63.998 24.2305ZM73.5771 32V29.7007H67.7167V27.9492C68.0322 27.4124 68.3476 26.8729 68.663 26.3306C68.984 25.7882 69.3077 25.2487 69.6342 24.7119C69.9663 24.1696 70.2955 23.6356 70.622 23.1099C70.9541 22.5786 71.2833 22.0557 71.6098 21.541C71.9418 21.0208 72.2739 20.5145 72.6059 20.022H75.6191V27.9326H77.2377V29.7007H75.6191V32H73.5771ZM69.7089 27.9824H73.6103V21.7319H73.4858C73.2423 22.1082 72.9905 22.4956 72.7304 22.894C72.4759 23.2925 72.2185 23.6992 71.9584 24.1143C71.6984 24.5293 71.441 24.9471 71.1865 25.3677C70.9319 25.7827 70.6801 26.2005 70.4311 26.6211C70.1821 27.0361 69.9414 27.4484 69.7089 27.8579V27.9824ZM82.1933 32V22.1304H82.0439L79.0639 24.2305V22.2217L82.1933 20.022H84.3266V32H82.1933Z" fill="black"/>
<rect opacity="0.35" x="336.5" y="19.3519" width="24" height="12.4815" rx="3.8" stroke="black"/>
<path opacity="0.4" d="M362 23.8101V28.0365C362.805 27.6785 363.328 26.8458 363.328 25.9233C363.328 25.0007 362.805 24.168 362 23.8101Z" fill="black"/>
<rect x="338" y="20.9259" width="21" height="9.33333" rx="2.5" fill="black"/>
<path fill-rule="evenodd" clip-rule="evenodd" d="M320.271 22.0709C322.758 22.071 325.15 23.0272 326.952 24.7419C327.088 24.8743 327.305 24.8726 327.439 24.7382L328.736 23.4279C328.804 23.3597 328.841 23.2673 328.841 23.1712C328.84 23.0751 328.802 22.9832 328.733 22.9158C324.002 18.379 316.538 18.379 311.807 22.9158C311.739 22.9831 311.7 23.075 311.699 23.1711C311.699 23.2673 311.736 23.3597 311.804 23.4279L313.102 24.7382C313.235 24.8728 313.452 24.8745 313.588 24.7419C315.391 23.0271 317.783 22.0708 320.271 22.0709ZM320.267 26.4474C321.624 26.4473 322.933 26.978 323.939 27.9364C324.076 28.0724 324.29 28.0695 324.423 27.9298L325.71 26.5616C325.778 26.4898 325.815 26.3925 325.814 26.2913C325.813 26.1901 325.774 26.0936 325.705 26.0233C322.641 23.0254 317.896 23.0254 314.832 26.0233C314.763 26.0936 314.724 26.1902 314.723 26.2914C314.722 26.3926 314.76 26.4899 314.827 26.5616L316.114 27.9298C316.247 28.0695 316.461 28.0724 316.597 27.9364C317.603 26.9787 318.911 26.448 320.267 26.4474ZM322.792 29.3445C322.794 29.4537 322.756 29.559 322.689 29.6356L320.512 32.1812C320.449 32.256 320.362 32.2981 320.271 32.2981C320.18 32.2981 320.093 32.256 320.029 32.1812L317.852 29.6356C317.785 29.559 317.748 29.4536 317.75 29.3444C317.752 29.2351 317.793 29.1317 317.863 29.0584C319.253 27.6959 321.289 27.6959 322.679 29.0584C322.749 29.1317 322.79 29.2352 322.792 29.3445Z" fill="black"/>
<path fill-rule="evenodd" clip-rule="evenodd" d="M304.2 20.5962C304.2 19.9397 303.722 19.4075 303.133 19.4075H302.067C301.478 19.4075 301 19.9397 301 20.5962V30.8981C301 31.5546 301.478 32.0868 302.067 32.0868H303.133C303.722 32.0868 304.2 31.5546 304.2 30.8981V20.5962ZM296.766 21.9434H297.833C298.422 21.9434 298.899 22.4883 298.899 23.1606V30.8696C298.899 31.5418 298.422 32.0868 297.833 32.0868H296.766C296.177 32.0868 295.699 31.5418 295.699 30.8696V23.1606C295.699 22.4883 296.177 21.9434 296.766 21.9434ZM292.434 24.6905H291.367C290.778 24.6905 290.301 25.2424 290.301 25.9232V30.854C290.301 31.5349 290.778 32.0868 291.367 32.0868H292.434C293.023 32.0868 293.501 31.5349 293.501 30.854V25.9232C293.501 25.2424 293.023 24.6905 292.434 24.6905ZM287.133 27.2264H286.067C285.478 27.2264 285 27.7704 285 28.4415V30.8717C285 31.5428 285.478 32.0868 286.067 32.0868H287.133C287.722 32.0868 288.2 31.5428 288.2 30.8717V28.4415C288.2 27.7704 287.722 27.2264 287.133 27.2264Z" fill="black"/>
<path fill-rule="evenodd" clip-rule="evenodd" d="M310.827 0H390V272.294C390 201.727 389.997 131.176 389.985 60.6086L389.977 60.6014C389.977 51.6075 389.734 42.5992 387.344 33.8416C382.57 16.3907 371.133 5.936 353.606 2.01189C346.477 0.415033 339.213 0.0641548 331.948 0.0355116C324.909 0.00789148 317.868 0 310.827 0ZM79.1835 0H310.827C306.133 0 301.439 0.00350769 296.745 0.0070152C292.051 0.0105223 287.358 0.0140293 282.665 0.0140293C278.414 0.0140293 276.353 2.12646 276.045 6.40145C275.996 7.07334 275.954 7.74868 275.911 8.42538C275.715 11.5206 275.517 14.6439 274.736 17.5938C272.388 26.4588 264.53 32.6386 255.39 33.3546C255.241 33.3661 255.092 33.3776 254.944 33.3892C253.324 33.5149 251.699 33.6411 250.08 33.6411C231.722 33.6482 158.291 33.6482 139.934 33.6411C138.312 33.6411 136.697 33.5156 135.083 33.3902C134.93 33.3783 134.776 33.3664 134.623 33.3546C125.484 32.6314 117.625 26.4588 115.278 17.5938C114.496 14.6417 114.298 11.5206 114.102 8.42078C114.059 7.746 114.017 7.07224 113.968 6.40145C113.66 2.12646 111.599 0.0140293 107.348 0.0140293C102.652 0.0140293 97.9575 0.0105213 93.2631 0.00701371C88.5695 0.0035067 83.8764 0 79.1835 0ZM0 421.913C0 301.476 0 181.039 0.014314 60.6014C0.021471 51.6075 0.257652 42.5992 2.65524 33.8487C7.4218 16.3907 18.8658 5.94316 36.4076 2.01189C43.536 0.415033 50.8003 0.0641548 58.0647 0.0355116C65.1041 0.00789148 72.1435 0 79.1835 0H0V421.913ZM194.999 844H0V421.913C0 542.35 0 662.895 0.014314 783.389C0.014314 791.495 0.243338 799.609 2.01112 807.564C5.81148 824.664 15.8456 836.1 32.8148 841.105C41.0382 843.533 49.5192 843.977 58.0074 843.984C80.8382 843.995 137.919 844 194.999 844ZM390 281.306C390 303.993 390 326.681 389.999 349.373C389.999 373.549 389.999 397.729 389.999 421.913V422.681C389.999 542.919 389.999 663.151 389.985 783.389C389.985 791.495 389.755 799.609 387.988 807.564C384.187 824.664 374.146 836.1 357.184 841.105C348.961 843.533 340.48 843.984 331.991 843.984C309.161 843.995 252.08 844 194.999 844H390V281.306Z" fill="black"/>
</g>
<defs>
<clipPath id="clip0_33_2">
<rect width="390" height="844" fill="white"/>
</clipPath>
</defs>
</svg>
